<?xml version="1.0" encoding="iso-8859-1"?>
<!-- Generator: Adobe Illustrator 19.0.0, SVG Export Plug-In . SVG Version: 6.00 Build 0)  -->
<svg version="1.1" id="Capa_1" xmlns="http://www.w3.org/2000/svg" xmlns:xlink="http://www.w3.org/1999/xlink" x="0px" y="0px"
	 viewBox="0 0 512 512" style="enable-background:new 0 0 512 512;" xml:space="preserve;" fill="#1E5494">
<g>
	<g>
		<path d="M241.71,68.267c-42.342,0-76.8,34.458-76.8,76.8s34.458,76.8,76.8,76.8c42.351,0,76.8-34.458,76.8-76.8
			S284.061,68.267,241.71,68.267z M241.71,204.8c-32.939,0-59.733-26.795-59.733-59.733c0-32.939,26.795-59.733,59.733-59.733
			c32.93,0,59.733,26.795,59.733,59.733C301.444,178.005,274.64,204.8,241.71,204.8z"/>
	</g>
</g>
<g>
	<g>
		<path d="M258.777,0h-34.133c-4.71,0-8.533,3.823-8.533,8.533V76.8c0,4.71,3.823,8.533,8.533,8.533h34.133
			c4.71,0,8.533-3.823,8.533-8.533V8.533C267.31,3.823,263.496,0,258.777,0z M250.244,68.267h-17.067v-51.2h17.067V68.267z"/>
	</g>
</g>
<g>
	<g>
		<path d="M258.777,238.933h-34.133c-4.71,0-8.533,3.823-8.533,8.533v76.8c0,4.719,3.823,8.533,8.533,8.533h34.133
			c4.71,0,8.533-3.814,8.533-8.533v-76.8C267.31,242.756,263.496,238.933,258.777,238.933z M250.244,315.733h-17.067V256h17.067
			V315.733z"/>
	</g>
</g>
<g>
	<g>
		<rect x="181.977" y="281.6" width="42.667" height="17.067"/>
	</g>
</g>
<g>
	<g>
		<rect x="258.811" y="281.6" width="42.667" height="17.067"/>
	</g>
</g>
<g>
	<g>
		<path d="M113.71,384c-18.825,0-34.133,15.309-34.133,34.133s15.309,34.133,34.133,34.133c18.816,0,34.133-15.309,34.133-34.133
			S132.535,384,113.71,384z M113.71,435.2c-9.412,0-17.067-7.654-17.067-17.067s7.654-17.067,17.067-17.067
			s17.067,7.654,17.067,17.067S123.123,435.2,113.71,435.2z"/>
	</g>
</g>
<g>
	<g>
		<path d="M400.516,432.307L292.398,133.641c-1.067-2.953-3.669-5.077-6.767-5.538c-3.072-0.461-6.195,0.819-8.081,3.319
			l-25.6,34.133c-1.741,2.321-2.185,5.367-1.178,8.09l110.933,298.667c1.246,3.337,4.437,5.555,8.004,5.555h17.067
			c4.164,0,7.723-3.012,8.414-7.108l5.717-34.133C401.147,435.174,401.019,433.69,400.516,432.307z M379.549,460.8h-3.908
			L268.394,172.066l13.329-17.775l101.982,281.711L379.549,460.8z"/>
	</g>
</g>
<g>
	<g>
		<path d="M395.899,501.402l-8.533-34.133c-1.143-4.591-5.777-7.39-10.342-6.212c-4.582,1.143-7.364,5.777-6.212,10.342
			l8.533,34.133c0.973,3.883,4.446,6.468,8.269,6.468c0.683,0,1.382-0.085,2.074-0.256
			C394.269,510.601,397.051,505.967,395.899,501.402z"/>
	</g>
</g>
<g>
	<g>
		<rect x="344.144" y="281.6" width="25.6" height="17.067"/>
	</g>
</g>
<g>
	<g>
		
			<rect x="407.433" y="373.831" transform="matrix(0.9285 -0.3714 0.3714 0.9285 -117.6192 182.8667)" width="17.067" height="45.953"/>
	</g>
</g>
<g>
	<g>
		
			<rect x="385.789" y="395.685" transform="matrix(0.9302 -0.367 0.367 0.9302 -120.4158 175.1302)" width="29.073" height="17.066"/>
	</g>
</g>
<g>
	<g>
		<path d="M231.462,165.547l-25.6-34.133c-1.877-2.509-4.983-3.789-8.081-3.319c-3.098,0.469-5.7,2.594-6.767,5.538L97.147,393.054
			l16.051,5.803l88.491-244.565l13.329,17.775L127.893,406.63l16,5.948l88.747-238.942
			C233.646,170.914,233.203,167.868,231.462,165.547z"/>
	</g>
</g>
<g>
	<g>
		<path d="M116.424,438.844l-8.55,21.956h-4.011l-4.224-25.242l1.007-3.977l-16.538-4.198l-1.451,5.717
			c-0.29,1.152-0.341,2.338-0.145,3.507l5.717,34.133c0.683,4.113,4.241,7.125,8.414,7.125h17.067c3.516,0,6.673-2.159,7.945-5.427
			l10.667-27.392L116.424,438.844z"/>
	</g>
</g>
<g>
	<g>
		<path d="M106.389,461.056c-4.557-1.135-9.207,1.63-10.351,6.212l-8.533,34.133c-1.135,4.565,1.638,9.199,6.212,10.342
			c0.7,0.171,1.391,0.256,2.082,0.256c3.814,0,7.296-2.586,8.269-6.468l8.533-34.133
			C113.736,466.833,110.963,462.199,106.389,461.056z"/>
	</g>
</g>
<g>
	<g>
		<rect x="113.71" y="281.6" width="25.6" height="17.067"/>
	</g>
</g>
<g>
</g>
<g>
</g>
<g>
</g>
<g>
</g>
<g>
</g>
<g>
</g>
<g>
</g>
<g>
</g>
<g>
</g>
<g>
</g>
<g>
</g>
<g>
</g>
<g>
</g>
<g>
</g>
<g>
</g>
</svg>
