<?xml version="1.0"?>
<svg xmlns="http://www.w3.org/2000/svg" viewBox="0 0 64 64" width="512" height="512" fill="#1E5494" ><g id="Wrench"><path d="M61.16,22H50.5l-2.25-3,2.25-3H61.16a1,1,0,0,0,.917-1.4A10.994,10.994,0,0,0,52,8a10.883,10.883,0,0,0-8.477,4H38V8a4,4,0,0,0-6.239-3.312,3.975,3.975,0,0,0-7.522,0,3.979,3.979,0,0,0-6,2A4,4,0,0,0,12,10v2H10a7,7,0,0,0,0,14h2V44H9a1,1,0,0,0-1,1V61a1,1,0,0,0,1,1H37a1,1,0,0,0,1-1V45a1,1,0,0,0-1-1H34V41.806a7.027,7.027,0,0,1,1.534-4.373l4.494-5.617A9.029,9.029,0,0,0,42,26.194V26h1.523A10.883,10.883,0,0,0,52,30a10.994,10.994,0,0,0,10.077-6.6A1,1,0,0,0,61.16,22ZM34,6a2,2,0,0,1,2,2v8H32V8A2,2,0,0,1,34,6ZM26,6a2,2,0,0,1,4,0V16a2,2,0,0,0-2,1.983,2.053,2.053,0,0,1-1.415-.57A1.983,1.983,0,0,1,26,16ZM20,8a2,2,0,0,1,4,0V18a2,2,0,0,1-4,0Zm-6,2a2,2,0,0,1,4,0V20a2,2,0,0,1-4,0ZM5,19a5.006,5.006,0,0,1,5-5h2v6a3.99,3.99,0,0,0,7.761,1.312,3.978,3.978,0,0,0,6-2A3.962,3.962,0,0,0,28,20a4.982,4.982,0,0,0,2.031,4H10A5.006,5.006,0,0,1,5,19ZM36,60H10V46H36Zm4-33.806a7.027,7.027,0,0,1-1.534,4.373l-4.494,5.617A9.029,9.029,0,0,0,32,41.806V44H14V26H33a1,1,0,0,1-1,1H30a7.008,7.008,0,0,0-7,7,1,1,0,0,0,2,0,5.006,5.006,0,0,1,5-5h2a3,3,0,0,0,3-3V25a2,2,0,0,0-2-2,3,3,0,0,1-3-3V18h7a3,3,0,0,1,3,3ZM52,28a8.906,8.906,0,0,1-7.19-3.6,1,1,0,0,0-.8-.4H42V21a5.009,5.009,0,0,0-4-4.9V14h6.01a1,1,0,0,0,.8-.4,8.986,8.986,0,0,1,14.669.4H50a1,1,0,0,0-.8.4l-3,4a1,1,0,0,0,0,1.2l3,4a1,1,0,0,0,.8.4h9.479A8.992,8.992,0,0,1,52,28Z"/><path d="M15,50a3,3,0,1,0,3,3A3,3,0,0,0,15,50Zm0,4a1,1,0,1,1,1-1A1,1,0,0,1,15,54Z"/></g></svg>
